<?xml version="1.0" standalone="no"?><!DOCTYPE svg PUBLIC "-//W3C//DTD SVG 1.1//EN" "http://www.w3.org/Graphics/SVG/1.1/DTD/svg11.dtd"><svg t="1589255315114" class="icon" viewBox="0 0 1024 1024" version="1.1" xmlns="http://www.w3.org/2000/svg" p-id="2433" xmlns:xlink="http://www.w3.org/1999/xlink" width="200" height="200"><defs><style type="text/css"></style></defs><path d="M909.2 112.8c-9.3-7.9-21.2-12.1-33.2-12.1-3 0-6 0.3-9 0.8l-439.8 77.6c-24.7 4.3-42.7 25.8-42.7 50.9V674.2c-26.2-19-60.3-30.3-98.2-30.3-22 0-44 3.6-65.4 10.8-49.1 16.4-88.4 49.2-108 90.1-15.1 31.6-17.1 66-5.5 96.9 19.7 52.7 75.6 86.8 142.5 86.8 22 0 44-3.6 65.4-10.8 49.1-16.3 88.5-49.2 108-90 8.4-17.6 12.3-36.1 12.5-54.4h0.4V359.4c3 0 6-0.3 9-0.7l430.8-76v314c-26.2-19.1-60.3-30.3-98.2-30.3-22 0-44 3.7-65.4 10.8-49.1 16.4-88.4 49.2-108 90.1-15.1 31.6-17 66-5.5 96.9 19.7 52.7 75.6 86.8 142.4 86.8 22 0 44-3.6 65.4-10.8 49.1-16.3 88.5-49.2 108-90 8.4-17.6 12.3-36.1 12.5-54.4h0.5V152.4c0-15.2-6.8-29.8-18.5-39.6zM298.7 868.7c-61.9 20.7-126 0.5-143-45s19.4-99.2 81.4-119.8c61.9-20.7 126.1-0.5 143 45 17.1 45.5-19.4 99.1-81.4 119.8z m490.6-77.6c-62 20.6-126.1 0.5-143-45-17-45.5 19.4-99.2 81.4-119.8 62-20.7 126.1-0.5 143 45 17.1 45.5-19.4 99.1-81.4 119.8z m85.6-531.3l-439.8 77.6V230.1l439.8-77.6v107.3z" fill="#144A8A" p-id="2434"></path><path d="M298.7 868.7c-61.9 20.7-126 0.5-143-45s19.4-99.2 81.4-119.8c61.9-20.7 126.1-0.5 143 45 17.1 45.5-19.4 99.1-81.4 119.8zM789.3 791.1c-62 20.6-126.1 0.5-143-45-17-45.5 19.4-99.2 81.4-119.8 62-20.7 126.1-0.5 143 45 17.1 45.5-19.4 99.1-81.4 119.8z" fill="#EDF5F9" p-id="2435"></path><path d="M874.9 259.8l-439.8 77.6V230l439.8-77.6v51.8z" fill="#9FC8E2" p-id="2436"></path></svg>