<?xml version="1.0" standalone="no"?><!DOCTYPE svg PUBLIC "-//W3C//DTD SVG 1.1//EN" "http://www.w3.org/Graphics/SVG/1.1/DTD/svg11.dtd"><svg t="1589255305076" class="icon" viewBox="0 0 1024 1024" version="1.1" xmlns="http://www.w3.org/2000/svg" p-id="2296" xmlns:xlink="http://www.w3.org/1999/xlink" width="200" height="200"><defs><style type="text/css"></style></defs><path d="M314.4 873.1c-62.2 20.7-126.5 0.5-143.5-45.2-17.1-45.7 19.5-99.6 81.7-120.3 62.2-20.7 126.5-0.5 143.6 45.2 17 45.7-19.5 99.5-81.8 120.3zM806.9 795.2c-62.2 20.7-126.5 0.5-143.6-45.2-17.1-45.7 19.5-99.6 81.7-120.3 62.2-20.7 126.5-0.5 143.6 45.2 17.1 45.7-19.5 99.5-81.7 120.3z" fill="#E8F5E9" p-id="2297"></path><path d="M892.8 272.9l-441.5 77.9V243l441.5-77.9v52z" fill="#A5D6A7" p-id="2298"></path><path d="M908.4 109.3c-9.4-7.9-21.2-12.2-33.4-12.2-3 0-6 0.3-9 0.8l-441.5 77.9c-24.8 4.4-42.9 25.9-42.9 51.1V672.7c-26.3-19.1-60.5-30.4-98.5-30.4-22.1 0-44.1 3.6-65.7 10.8-49.3 16.4-88.8 49.4-108.4 90.5-15.2 31.7-17.1 66.3-5.6 97.3 19.8 52.9 75.9 87.1 143 87.1 22.1 0 44.1-3.6 65.7-10.8 49.3-16.4 88.8-49.4 108.4-90.4 8.4-17.7 12.4-36.3 12.5-54.6h0.5V356.7c3 0 6-0.3 9-0.7L875 279.7v315.2c-26.3-19.1-60.5-30.4-98.5-30.4-22.1 0-44.1 3.7-65.7 10.8-49.3 16.4-88.8 49.4-108.4 90.5-15.2 31.7-17.1 66.3-5.5 97.3 19.7 52.9 75.9 87.1 143 87.1 22.1 0 44.2-3.6 65.7-10.8C854.9 823 894.4 790 914 749c8.4-17.7 12.4-36.3 12.5-54.6h0.5V149.1c-0.1-15.4-6.9-30-18.6-39.8zM295.6 868c-62.2 20.7-126.5 0.5-143.5-45.2-17.1-45.7 19.5-99.6 81.7-120.3 62.2-20.7 126.5-0.5 143.6 45.2 17 45.7-19.5 99.5-81.8 120.3z m492.5-77.9c-62.2 20.7-126.5 0.5-143.6-45.2-17.1-45.7 19.5-99.6 81.7-120.3 62.2-20.7 126.5-0.5 143.6 45.2 17.1 45.7-19.5 99.5-81.7 120.3zM874 256.8l-441.5 77.9V227L874 149v107.8z" fill="#333231" p-id="2299"></path></svg>