<?xml version="1.0" standalone="no"?><!DOCTYPE svg PUBLIC "-//W3C//DTD SVG 1.1//EN" "http://www.w3.org/Graphics/SVG/1.1/DTD/svg11.dtd"><svg t="1591778512687" class="icon" viewBox="0 0 1024 1024" version="1.1" xmlns="http://www.w3.org/2000/svg" p-id="1561" xmlns:xlink="http://www.w3.org/1999/xlink" width="200" height="200"><defs><style type="text/css"></style></defs><path d="M984 829.184c-4.096-17.386667-10.261333-34.517333-19.605333-50.048-18.581333-31.274667-46.912-55.146667-76.672-74.432-30.058667-19.221333-62.208-34.645333-95.104-47.338667-62.997333-24.341333-59.946667-23.530667-102.464-38.698666-94.208-33.578667-146.517333-83.498667-149.802667-137.642667-1.578667-26.218667 24.021333-111.658667 129.578667-91.349333 25.066667 4.821333 48.789333 11.584 72.149333 22.122666 21.525333 9.728 84.352 40.192 106.368 83.562667 1.664 19.136 8.405333 26.538667 35.328 39.253333 20.245333 9.557333 40.682667 19.946667 42.517333 43.498667 0.106667 1.28 1.088 2.325333 2.794667 2.581333 1.109333 0 2.133333-0.661333 2.581333-1.728 3.882667-9.365333 19.52-21.098667 31.168-17.898666a2.709333 2.709333 0 0 0 3.157334-1.301334 2.816 2.816 0 0 0-0.448-3.370666l-18.410667-18.218667a116.138667 116.138667 0 0 1-24.384-35.541333l-2.432-5.994667c-15.445333-40.426667-44.224-83.733333-73.92-111.786667a312.469333 312.469333 0 0 0-52.8-40.810666c-19.008-11.477333-38.805333-21.674667-60.437333-27.776l-1.578667 5.461333c20.202667 6.976 39.104 18.112 56.789333 30.272a300.458667 300.458667 0 0 1 48.490667 42.218667 255.210667 255.210667 0 0 1 48.682667 74.922666l-42.517334-52.842666 1.173334 18.304-34.837334-39.274667 2.154667 18.389333-33.834667-27.285333 2.901334 12.458667c-7.616-5.034667-75.2-31.914667-108.928-44.586667s-100.373333-75.178667-81.152-154.282667c0 0-31.509333-12.245333-54.08-20.586666a1664.448 1664.448 0 0 0-66.986667-22.314667 3072.64 3072.64 0 0 0-135.146667-38.784 2704.405333 2704.405333 0 0 0-136.725333-32.170667c-45.866667-9.408-91.989333-17.792-138.666667-22.464l-0.832 7.104C104 77.866667 149.333333 88.576 194.325333 100.288c44.970667 11.84 89.642667 24.874667 133.952 39.018667 44.288 14.186667 88.298667 29.226667 131.776 45.397333 21.717333 8.085333 43.370667 16.405333 64.576 25.344 4.501333 1.877333 9.088 3.84 13.674667 5.802667a1213.610667 1213.610667 0 0 0-78.357333-12.608 1747.52 1747.52 0 0 0-141.632-11.904 1724.586667 1724.586667 0 0 0-141.696-0.725334c-47.168 1.834667-94.357333 5.525333-140.906667 13.504l0.917333 6.485334c46.506667-4.778667 93.333333-5.248 140.010667-3.904a1706.026667 1706.026667 0 0 1 139.669333 10.176c46.336 5.248 92.48 12.096 138.005334 21.034666 28.074667 5.568 55.978667 12.032 83.264 19.648a576.085333 576.085333 0 0 0-64.298667-2.453333c-42.176 0.64-83.754667 5.269333-124.757333 12.245333-41.002667 7.04-81.450667 16.490667-121.066667 28.714667-39.488 12.352-78.528 27.029333-114.368 47.978667l2.474667 4.437333c36.693333-17.664 76.117333-28.970667 115.754666-37.952a944.064 944.064 0 0 1 120.405334-18.517333c40.341333-3.584 80.896-4.778667 120.810666-2.154667 35.498667 2.346667 70.762667 7.744 103.04 18.112 1.386667 9.493333 7.808 28.714667 10.901334 38.314667-90.773333 41.749333-102.272 116.842667-94.848 157.12 8.725333 47.232 42.901333 83.242667 83.285333 106.56 33.429333 19.008 67.584 31.125333 100.821333 43.669333 33.173333 12.437333 66.026667 24.384 95.296 40.917333 28.842667 15.936 52.821333 40.554667 72.341334 68.48 39.189333 56.277333 54.869333 127.232 59.562666 197.226667l7.786667-0.213333c0.170667-70.890667-10.026667-145.109333-48.042667-209.322667a272.96 272.96 0 0 0-46.314666-58.304c21.162667 8.192 41.834667 17.450667 61.589333 28.437333 29.290667 16.618667 56.896 37.312 75.690667 65.088 9.472 13.802667 16.106667 29.333333 20.970666 45.504 4.309333 16.362667 6.293333 33.386667 7.018667 50.581334h6.656c0.234667-17.557333-0.746667-35.306667-4.288-52.842667z" p-id="1562" fill="#d81e06"></path></svg>