<?xml version="1.0" standalone="no"?><!DOCTYPE svg PUBLIC "-//W3C//DTD SVG 1.1//EN" "http://www.w3.org/Graphics/SVG/1.1/DTD/svg11.dtd"><svg t="1590477525889" class="icon" viewBox="0 0 1158 1024" version="1.1" xmlns="http://www.w3.org/2000/svg" p-id="3136" xmlns:xlink="http://www.w3.org/1999/xlink" width="226.171875" height="200"><defs><style type="text/css"></style></defs><path d="M607.947929 87.842164H432.226547L315.040359 168.378718l-29.296546 87.889641-183.074469 95.242726v87.88964l65.888281 95.184828 110.006797 58.593094 73.241367 43.94482 131.83446 58.593094 51.240008 29.296546 344.205476 21.943461 131.660765-44.176413 87.889641-124.481375-21.943461-138.955953-80.536555-124.481375-168.426195-205.017929-88.179132-43.94482z" fill="#E00B0B" p-id="3137"></path><path d="M1069.281694 885.854623a225.803424 225.803424 0 0 0-73.241367-7.295187 193.959351 193.959351 0 0 0-102.537914 21.943461l-7.295188 7.295187v7.295188c0 7.295188 0 21.943461-29.296547 21.943461-36.591734 7.295188-65.888281 51.240008-80.536554 65.888281s-65.888281 29.296547-58.593094 14.648273a133.166122 133.166122 0 0 0 36.591735-58.593093c14.648273-21.943461 21.943461-29.296547 36.591734-51.240008a83.547267 83.547267 0 0 0 21.943461-43.94482c7.295188-14.648273 0-36.591734 7.295188-43.944821 0-14.648273 14.648273-36.591734 14.648273-58.593093 0-7.295188-36.591734 14.648273-51.240008 14.648273a135.771546 135.771546 0 0 1-51.240008-14.648273c-21.943461 0-29.296547 14.648273-51.240007 14.648273a123.728697 123.728697 0 0 1-36.591735-14.648273 1017.331272 1017.331272 0 0 1-110.006796 14.648273c-58.593094 0-110.006796-73.241367-117.186187-80.536554a15.285155 15.285155 0 0 0-29.296547 0c-14.648273 7.295188-21.943461 0-29.296547-7.295188-7.295188-14.648273-29.296547-51.240008-58.593093-58.593093a42.671057 42.671057 0 0 0-58.593094 51.240007c0 29.296547 21.943461 36.591734 29.296547 51.240008a57.203534 57.203534 0 0 0 29.296547 29.296547c14.648273 7.295188 14.648273 14.648273 14.648273 21.943461s-14.648273 7.295188-21.943461 7.295187a54.887602 54.887602 0 0 1-36.591734-7.295187l-29.296547-29.296547a44.29221 44.29221 0 0 0-43.94482-21.943461 26.922716 26.922716 0 0 0-21.943461 7.295188 202.644098 202.644098 0 0 1-95.184828 21.943461h-36.475938A505.625975 505.625975 0 0 1 0.131431 578.530373 575.103951 575.103951 0 0 1 578.651382 0.010422a575.103951 575.103951 0 0 1 578.519952 578.519951 504.41011 504.41011 0 0 1-87.88964 307.32425zM915.503772 417.399366a102.422117 102.422117 0 0 1-51.240008 65.888281c-7.295188 0-7.295188 0-7.295187-7.295187 14.648273-21.943461 14.648273-29.296547 21.943461-36.591735 7.295188-14.648273 7.295188-29.296547 0-73.241367a614.532703 614.532703 0 0 0-102.537914-219.666202A150.188226 150.188226 0 0 0 637.012883 117.196609a202.644098 202.644098 0 0 1-124.481375 7.295187c-117.186187-29.296547-138.955953 36.591734-146.482734 58.593094-7.295188 29.296547-21.943461 102.537914-21.943461 102.537914-7.295188 29.296547-14.648273 80.536555 175.779281 117.186187 87.88964 14.648273 95.184828 36.591734 95.184828 58.593094 7.295188 29.296547 14.648273 43.94482 29.296546 51.240007s0 14.648273-14.648273 14.648274a663.225185 663.225185 0 0 1-256.315835-80.536555c-65.888281-43.94482-65.888281-80.536555-51.240008-110.006796-102.537914-7.295188-175.779281 7.295188-190.369656 58.593093-21.653969 80.652351 175.895077 219.781999 410.267452 293.023367 241.667562 73.241367 490.630311 21.943461 519.926858-131.834461 7.295188-65.888281-51.297906-117.128289-146.482734-139.129648z m-227.019288-212.371015c-14.648273 0-21.943461 0-29.296547-7.295188 21.943461-7.295188 36.591734-14.648273 36.591734-21.943461s-29.296547-14.648273-65.888281-14.648273h-14.648273a105.838118 105.838118 0 0 1 51.240007-14.648273h21.943461c36.591734 0 65.888281 14.648273 65.888281 36.591734 0 7.295188-29.296547 21.943461-65.888281 21.943461zM542.059648 270.97453a185.969384 185.969384 0 0 0-87.88964 21.943461c-14.648273 21.943461-43.94482-21.943461-43.944821-21.943461-14.648273 0-29.296547-21.943461-21.943461-43.94482s21.943461-14.648273 29.296547-7.295187a62.240687 62.240687 0 0 0 36.591735 21.943461c14.648273 0 36.591734-7.295188 65.888281-7.295188s51.240008 7.295188 51.240007 21.943461c7.295188 0 0 7.295188-29.296546 14.648273z m117.186187 571.224765a32.191462 32.191462 0 0 0 36.591734 7.295187l14.648274-14.648273s7.295188 14.648273 0 21.943461a15.748341 15.748341 0 0 1-14.648274 14.648273 32.075666 32.075666 0 0 1-43.94482 0 44.002719 44.002719 0 0 0-29.296547-7.295187c-14.648273 0-14.648273-7.295188-14.648273-21.943461a115.796628 115.796628 0 0 1 51.240008-0.057899z" fill="#152935" p-id="3138"></path></svg>